<svg viewBox="0 0 200 200" xmlns="http://www.w3.org/2000/svg" xmlns:xlink="http://www.w3.org/1999/xlink"><linearGradient id="linear-gradient" gradientUnits="userSpaceOnUse" x1="29.29" x2="170.71" y1="170.71" y2="29.29"><stop offset="0" stop-color="#2ebac6"/><stop offset="1" stop-color="#b6509e"/></linearGradient><linearGradient id="linear-gradient-2" gradientUnits="userSpaceOnUse" x1="100" x2="100" y1="137.38" y2="49.96"><stop offset="0" stop-color="#e6e4e6"/><stop offset="1" stop-color="#fffeff"/></linearGradient><g id="Layer_2" data-name="Layer 2"><g id="Pack2"><g id="Aave_AAVE_" data-name="Aave (AAVE)"><path d="m200 100a100 100 0 0 1 -160.29 79.77c-1.47-1.09-2.91-2.25-4.32-3.45q-1.76-1.48-3.45-3.06c-1.34-1.24-2.65-2.52-3.91-3.84q-1.65-1.69-3.18-3.46c-1.22-1.37-2.38-2.77-3.51-4.2a100 100 0 1 1 178.66-61.76z" fill="url(#linear-gradient)"/><path d="m139.5 129.57-30.5-73.92a8.2 8.2 0 0 0 -7.61-5.65h-2.7a8.23 8.23 0 0 0 -7.64 5.69l-13.25 32.17h-10a5.5 5.5 0 0 0 -5.47 5.47v.07a5.5 5.5 0 0 0 5.47 5.47h5.39l-12.69 30.7a6.54 6.54 0 0 0 -.37 2.1 5.85 5.85 0 0 0 1.49 4.12 5.37 5.37 0 0 0 1.86 1.21 5.25 5.25 0 0 0 2.19.35 5.38 5.38 0 0 0 3.14-1.05 6.63 6.63 0 0 0 2.19-2.76l13.91-34.67h9.66a5.5 5.5 0 0 0 5.43-5.47v-.15a5.5 5.5 0 0 0 -5.47-5.47h-5.13l10.6-26.58 29 72.35a6.63 6.63 0 0 0 2.17 2.77 5.45 5.45 0 0 0 3.14 1.05 5.25 5.25 0 0 0 2.19-.35 5.37 5.37 0 0 0 1.86-1.22 5.85 5.85 0 0 0 1.49-4.12 4.93 4.93 0 0 0 -.35-2.11z" fill="url(#linear-gradient-2)"/></g></g></g></svg>