<svg viewBox="0 0 200 200" xmlns="http://www.w3.org/2000/svg" xmlns:xlink="http://www.w3.org/1999/xlink"><radialGradient id="radial-gradient" cx="100" cy="100" gradientUnits="userSpaceOnUse" r="100"><stop offset="0" stop-color="#fff"/><stop offset="1" stop-color="#cfcfcf"/></radialGradient><linearGradient id="linear-gradient" gradientUnits="userSpaceOnUse" x1="100" x2="100" y1="131.46" y2=".22"><stop offset="0" stop-color="#b84f1a"/><stop offset="1" stop-color="#ff9159"/></linearGradient><linearGradient id="linear-gradient-2" gradientUnits="userSpaceOnUse" x1="99.81" x2="99.81" y1="199.78" y2="98.98"><stop offset=".04" stop-color="#4d4d4d"/><stop offset="1" stop-color="#292929"/></linearGradient><g id="Layer_2" data-name="Layer 2"><g id="Gradiants"><g id="Monero_XMR_" data-name="Monero (XMR)"><circle cx="100" cy="100" fill="url(#radial-gradient)" r="100"/><g id="ICON"><path id="path" d="m99.81.22a99.8 99.8 0 0 0 -94.73 131.24h29.92v-83.94l65 65 65-65v83.94h30a103.64 103.64 0 0 0 5-31.46 99.8 99.8 0 0 0 -99.8-99.78z" fill="url(#linear-gradient)"/><path id="path-2" d="m84.87 127.31-28.33-28.31v52.88h-42a99.8 99.8 0 0 0 170.49 0h-42.03v-52.88l-28.32 28.33-14.87 14.92z" fill="url(#linear-gradient-2)" data-name="path"/></g></g></g></g></svg>