<svg viewBox="0 0 200 200" xmlns="http://www.w3.org/2000/svg" xmlns:xlink="http://www.w3.org/1999/xlink"><linearGradient id="linear-gradient" gradientUnits="userSpaceOnUse" x1="100" x2="100" y1="200"><stop offset="0" stop-color="#170e2b"/><stop offset="1" stop-color="#210066"/></linearGradient><linearGradient id="linear-gradient-2" gradientTransform="matrix(1 0 0 -1 0 16)" gradientUnits="userSpaceOnUse" x1="137.3" x2="86.75" y1="-39.5" y2="-136.3"><stop offset="0" stop-color="#00ffa3"/><stop offset="1" stop-color="#dc1fff"/></linearGradient><linearGradient id="linear-gradient-3" x1="115.24" x2="64.74" xlink:href="#linear-gradient-2" y1="-27.97" y2="-124.78"/><linearGradient id="linear-gradient-4" x1="126.24" x2="75.68" xlink:href="#linear-gradient-2" y1="-33.72" y2="-130.52"/><g id="Layer_2" data-name="Layer 2"><g id="Gradiants"><g id="Solana_SOL_" data-name="Solana (SOL)"><circle cx="100" cy="100" fill="url(#linear-gradient)" r="100"/><path d="m69.2 118.86a2.87 2.87 0 0 1 2.1-.88h73a1.54 1.54 0 0 1 1.46 1.63 1.6 1.6 0 0 1 -.41 1l-14.42 14.39a3 3 0 0 1 -2.1.88h-73a1.49 1.49 0 0 1 -1.05-2.65z" fill="url(#linear-gradient-2)"/><path d="m69.2 65a3 3 0 0 1 2.1-.89h73a1.5 1.5 0 0 1 1.05 2.55l-14.42 14.48a3 3 0 0 1 -2.1.88h-73a1.55 1.55 0 0 1 -1.46-1.63 1.6 1.6 0 0 1 .41-1z" fill="url(#linear-gradient-3)"/><path d="m130.93 91.76a2.92 2.92 0 0 0 -2.1-.89h-73a1.55 1.55 0 0 0 -1.46 1.63 1.58 1.58 0 0 0 .41 1l14.42 14.35a2.92 2.92 0 0 0 2.1.89h73a1.5 1.5 0 0 0 1.05-2.55z" fill="url(#linear-gradient-4)"/></g></g></g></svg>