<svg id="Layer_1" enable-background="new 0 0 512 512" viewBox="0 0 512 512" xmlns="http://www.w3.org/2000/svg"><path d="m423.962 44.704h-42.693c-12.53-18.318-33.54-29.704-56.009-29.704h-169.374c-32.762 0-58.59 24.645-67.406 64.315l-36.555 164.5c-3.44 15.481.516 31.302 11.14 44.545 13.217 16.477 34.777 26.713 56.266 26.713h64.267c-11.212 20.16-19.396 39.094-24.42 56.524-8.184 28.392-8.009 52.983.52 73.094 11.407 26.9 36.631 44.396 74.97 52.003 1.032.205 2.075.306 3.113.306 3.176 0 6.307-.946 8.976-2.755 3.541-2.399 5.974-6.116 6.755-10.321 16.57-89.135 49.777-117.484 79.076-142.497 16.078-13.726 32.635-27.859 44.221-49.96h47.155c20.579 0 37.322-16.743 37.322-37.322v-172.119c-.002-20.579-16.745-37.322-37.324-37.322zm5.322 209.441c0 2.885-2.438 5.322-5.322 5.322h-57.335c-6.49 0-12.337 3.92-14.802 9.924-8.554 20.838-22.438 32.692-40.017 47.699-29.851 25.483-66.575 56.83-86.315 144.213-18.548-6.159-30.742-15.913-36.337-29.104-11.278-26.596 1.568-70.794 36.172-124.453 3.175-4.923 3.405-11.187.603-16.329s-8.191-8.343-14.049-8.343h-92.552c-11.653 0-24.234-5.922-31.305-14.736-4.557-5.681-6.192-11.595-4.862-17.58l36.555-164.5c2.623-11.805 11.398-39.258 36.168-39.258h169.374c13.716 0 26.417 8.075 32.358 20.573 2.651 5.577 8.275 9.131 14.45 9.131h51.894c2.885 0 5.322 2.438 5.322 5.322z"/></svg>