<svg id="Layer_1" enable-background="new 0 0 512 512" viewBox="0 0 512 512" xmlns="http://www.w3.org/2000/svg"><path d="m448.936 223.639c-13.217-16.477-34.777-26.713-56.267-26.713h-64.267c11.212-20.16 19.396-39.094 24.42-56.524 8.184-28.392 8.009-52.983-.52-73.094-11.407-26.9-36.631-44.396-74.97-52.003-4.188-.83-8.548.05-12.089 2.449s-5.974 6.116-6.755 10.321c-16.569 89.135-49.777 117.484-79.075 142.497-16.078 13.727-32.635 27.86-44.221 49.96h-47.155c-20.579 0-37.322 16.743-37.322 37.322v172.118c0 20.579 16.743 37.322 37.322 37.322h42.693c12.531 18.32 33.542 29.706 56.01 29.706h169.374c32.763 0 58.591-24.645 67.405-64.315l36.556-164.5c3.441-15.482-.515-31.302-11.139-44.546zm-20.099 37.604-36.556 164.5c-2.622 11.804-11.396 39.257-36.167 39.257h-169.374c-13.717 0-26.418-8.075-32.359-20.573-2.651-5.577-8.275-9.131-14.45-9.131h-51.894c-2.885 0-5.322-2.438-5.322-5.322v-172.119c0-2.885 2.438-5.322 5.322-5.322h57.336c6.49 0 12.337-3.92 14.802-9.924 8.554-20.838 22.438-32.691 40.017-47.699 29.851-25.483 66.575-56.83 86.314-144.213 18.549 6.159 30.742 15.913 36.337 29.104 11.278 26.596-1.568 70.794-36.172 124.453-3.175 4.923-3.405 11.187-.603 16.329s8.191 8.343 14.049 8.343h92.552c11.654 0 24.235 5.922 31.306 14.736 4.556 5.681 6.192 11.595 4.862 17.581z"/></svg>